<?xml version="1.0" encoding="utf-8"?>
<svg xmlns="http://www.w3.org/2000/svg" height="256" width="256" viewBox="0 0 256 256">
  <g>
    <path id="path1" transform="rotate(0,128,128) translate(0,1.50402778243026) scale(7.99999713897807,7.99999713897807)  " fill="#51A7F9" d="M1.5010406,18.52604L9.8820381,18.52604C10.015034,20.71704 10.817038,22.816043 12.237022,24.553046 12.645043,25.053048 13.100061,25.50805 13.580043,25.921061L1.5010406,25.921061C0.67401251,25.921061,0,25.247048,0,24.42005L0,20.027036C0,19.195033,0.67401251,18.52604,1.5010406,18.52604z M20.466043,13.297026C18.162084,13.296034 16.186067,15.044023 15.946075,17.380042 15.696075,19.876035 17.514071,22.103043 20.011085,22.35805 22.5081,22.60805 24.730088,20.795043 24.985093,18.29403 25.2401,15.802036 23.427047,13.571029 20.930093,13.321028 20.774087,13.305021 20.619058,13.297026 20.466043,13.297026z M20.426065,10.228019C20.68406,10.228019 20.94407,10.241019 21.206096,10.26702 25.404101,10.691017 28.457086,14.439027 28.033074,18.636042 27.885062,20.122037 27.313102,21.459046 26.456105,22.55704L31.572082,28.638062C32.22107,29.404055 32.119081,30.553059 31.353087,31.196067 30.582089,31.845069 29.438106,31.743064 28.789056,30.977071L23.606063,24.809045C22.416059,25.35505 21.06309,25.600045 19.664039,25.462045 15.471038,25.033059 12.413049,21.291047 12.842066,17.094031 13.244043,13.159025 16.559052,10.230018 20.426065,10.228019z M1.5010406,9.1810196L14.38107,9.1810196C11.991051,10.847024,10.31606,13.483031,9.9380684,16.57903L1.5010406,16.57903C0.67401251,16.57903,0,15.904026,0,15.077028L0,10.683021C0,9.8500117,0.67401251,9.1810196,1.5010406,9.1810196z M1.5010406,0L22.528058,0C23.356063,3.4862751E-08,24.030076,0.66899255,24.030076,1.5009952L24.030076,5.8980077C24.030076,6.7250055,23.356063,7.3990181,22.528058,7.3990181L1.5010406,7.3990181C0.67401251,7.3990181,0,6.7250055,0,5.8980077L0,1.5009952C0,0.66899255,0.67401251,3.4862751E-08,1.5010406,0z" />
  </g>
</svg>

