<?xml version="1.0" encoding="utf-8"?>
<svg xmlns="http://www.w3.org/2000/svg" height="256" width="256" viewBox="0 0 256 256">
  <g>
    <path id="path1" transform="rotate(0,128,128) translate(7.62939453125E-06,0) scale(8,8)  " fill="#70C041" d="M2,24L29.999007,24C31.098998,24,31.999999,24.901001,31.999999,25.998993L31.999999,30C31.999999,31.100006,31.098998,32,29.999007,32L2,32C0.89999391,32,-1.8953045E-07,31.100006,5.6843419E-14,30L5.6843419E-14,25.998993C-1.8953045E-07,24.901001,0.89999391,24,2,24z M2,12L29.999007,12C31.098998,12,31.999999,12.901001,31.999999,14L31.999999,18C31.999999,19.100006,31.098998,20,29.999007,20L2,20C0.89999391,20,-1.8953045E-07,19.100006,5.6843419E-14,18L5.6843419E-14,14C-1.8953045E-07,12.901001,0.89999391,12,2,12z M2,0L29.999007,0C31.098998,0,31.999999,0.90100098,31.999999,2L31.999999,6C31.999999,7.098999,31.098998,8,29.999007,8L2,8C0.89999391,8,-1.8953045E-07,7.098999,5.6843419E-14,6L5.6843419E-14,2C-1.8953045E-07,0.90100098,0.89999391,0,2,0z" />
  </g>
</svg>

