<?xml version="1.0" encoding="utf-8"?>
<svg xmlns="http://www.w3.org/2000/svg" height="256" width="256" viewBox="0 0 256 256">
  <g>
    <path id="path1" transform="rotate(0,128,128) translate(0,27.1999969482422) scale(8,8)  " fill="#4B7089" d="M22.299988,17.400016L22.299988,23.499989 30.700012,23.499989 30.700012,17.400016z M22,13.60003L31,13.60003C31.5,13.60003,32,13.999993,32,14.499993L32,24.100026C32,24.600024,31.599976,24.999987,31,24.999987L22,24.999987C21.5,24.999987,21,24.600024,21,24.100026L21,14.499993C21.099976,13.999993,21.5,13.60003,22,13.60003z M1.2999878,5.4999975L1.2999878,23.999989 17.400024,23.999989 17.400024,5.4999975z M22.299988,3.800047L22.299988,9.9000195 30.700012,9.9000195 30.700012,3.800047z M1,0.2000122L17.599976,0.2000122C18.099976,0.20001224,18.599976,0.60003644,18.599976,1.2000117L18.599976,24.200002C18.599976,24.800036,18.200012,25.2,17.599976,25.2L1,25.2C0.5,25.2,0,24.800036,0,24.200002L0,1.2000117C0,0.60003644,0.40002441,0.20001224,1,0.2000122z M22,0L31,0C31.5,1.2622331E-07,32,0.40002435,32,0.90002393L32,10.300044C32,10.800044,31.599976,11.200007,31,11.200007L22,11.200007C21.5,11.200007,21,10.800044,21,10.300044L21,0.90002393C21.099976,0.40002435,21.5,1.2622331E-07,22,0z" />
  </g>
</svg>

