<?xml version="1.0" encoding="utf-8"?>
<svg xmlns="http://www.w3.org/2000/svg" height="256" width="256" viewBox="0 0 256 256">
  <g>
    <path id="path1" transform="rotate(0,128,128) translate(0,79.7520027160645) scale(8,8)  " fill="#B861A8" d="M11.165001,2.3930043C14.156006,2.3930043 16.648003,4.3859998 17.445,7.1779987 18.143005,6.4800011 19.139999,5.9810006 20.237,5.9810006 22.43,5.9810006 24.124001,7.6759998 24.124001,9.8689996 24.124001,10.168003 24.124001,10.368 24.025002,10.566998 24.523003,10.368 25.022003,10.168003 25.620003,10.168003 27.014999,10.168003 28.311005,10.966 28.710007,12.061999L0,12.061999C0.19900513,11.265002 1.0960007,10.866001 1.2960052,10.866001 1.1960068,10.566998 1.0960007,10.268002 1.0960007,9.9689981 1.0960007,8.4740039 2.2930069,7.1779987 3.8880005,7.1779987 4.1870041,7.1779987 4.4860001,7.2769977 4.7850037,7.3770038 5.4830017,4.5860044 8.0750046,2.3930043 11.165001,2.3930043z M17.844002,0C20.237,-1.3229783E-07 22.230003,1.5950005 22.928001,3.887999 23.526001,3.2899996 24.324005,2.8910054 25.221001,2.8910054 26.916,2.8910054 28.311005,4.2870008 28.311005,5.9810006 28.311005,6.1810051 28.311005,6.3800026 28.212006,6.5790001 28.610001,6.3800026 29.009003,6.2800042 29.508003,6.2800042 30.704002,6.2800042 31.701004,6.9780017 32,7.8749973L24.523003,7.8749973C23.726006,6.2800042 22.131004,5.284002 20.336006,5.284002 19.439003,5.284002 18.642006,5.4829995 17.844002,5.9810006 17.046005,4.1870023 15.551003,2.7909993 13.657005,2.0940007 14.554001,0.79800375 16.050003,-1.3229783E-07 17.844002,0z" />
  </g>
</svg>

