<?xml version="1.0" encoding="utf-8"?>
<svg xmlns="http://www.w3.org/2000/svg" height="256" width="256" viewBox="0 0 256 256">
  <g>
    <path id="path1" transform="rotate(0,128,128) translate(1.59999999999999,42.652348613739) scale(7.9,7.9)  " fill="#EC5D57" d="M1.2509918,15.441013L18.781998,15.441013C19.470993,15.441013,20.03299,16.002994,20.03299,16.69199L20.03299,20.360998C20.03299,21.049993,19.470993,21.607,18.781998,21.607L1.2509918,21.607C0.56199646,21.607,0,21.049993,0,20.360998L0,16.69199C0,16.002994,0.56199646,15.441013,1.2509918,15.441013z M26.903992,11.718997L24.447998,14.174015 31.723999,14.174015 31.723999,15.741001 24.437988,15.741001 26.903992,18.207004 24.758987,18.207004 21.521988,14.965 24.758987,11.724002z M1.2509918,7.6489886L18.781998,7.6489886C19.470993,7.6489886,20.03299,8.2110003,20.03299,8.8999966L20.03299,12.566012C20.03299,13.256016,19.470993,13.81699,18.781998,13.81699L1.2509918,13.81699C0.56199646,13.81699,0,13.256016,0,12.566012L0,8.8999966C0,8.2110003,0.56199646,7.6489886,1.2509918,7.6489886z M26.617996,4.5039991L28.756989,4.5039991 32,7.747011 28.756989,10.985995 26.612991,10.991 29.069,8.5390032 21.797989,8.5390032 21.797989,6.9660052 29.084,6.9660052z M3.6869965,1.6600041C2.9059906,1.6600042 2.2669983,2.2990118 2.2669983,3.0809947 2.2669983,3.8670054 2.9059906,4.5060133 3.6869965,4.5060133 4.4729919,4.5060133 5.1059875,3.8670054 5.1059875,3.0809947 5.1059875,2.2990118 4.4729919,1.6600042 3.6869965,1.6600041z M1.2509918,0L18.781998,0C19.470993,1.4263424E-07,20.03299,0.55700711,20.03299,1.2519841L20.03299,4.9150098C20.03299,5.6090101,19.470993,6.1659869,18.781998,6.1659869L1.2509918,6.1659869C0.56199646,6.1659869,0,5.6090101,0,4.9150098L0,1.2519841C0,0.55700711,0.56199646,1.4263424E-07,1.2509918,0z" />
  </g>
</svg>

