<?xml version="1.0" encoding="utf-8"?>
<svg xmlns="http://www.w3.org/2000/svg" height="256" width="256" viewBox="0 0 256 256">
  <g>
    <path id="path1" transform="rotate(0,128,128) translate(7.58000183105469,0) scale(8,8)  " fill="#F38F19" d="M4.9840118,13.656998L25.021011,13.656998C26.01802,13.656998,26.815995,14.455002,26.815995,15.451996L26.815995,17.444992C26.815995,18.442001,26.01802,19.23999,25.021011,19.23999L16.248971,19.23999 16.248971,24.821991C17.445018,25.220993,18.341991,26.218002,18.542003,27.414001L28.909013,27.414001C29.507037,27.414001 30.104999,27.912994 30.104999,28.610992 30.104999,29.307999 29.607013,29.806992 28.909013,29.806992L18.341991,29.806992C17.744029,31.102997 16.448007,32 15.052011,32 13.65699,32 12.260993,31.102997 11.763007,29.806992L1.1959844,29.806992C0.59796159,29.806992 -1.6587728E-07,29.307999 0,28.610992 -1.6587728E-07,28.011993 0.49798598,27.414001 1.1959844,27.414001L11.463996,27.414001C11.763007,26.218002,12.659981,25.220993,13.757027,24.821991L13.757027,19.23999 4.9840118,19.23999C3.9870018,19.23999,3.1900043,18.442001,3.1900043,17.444992L3.1900043,15.451996C3.1900043,14.455002,3.9870018,13.656998,4.9840118,13.656998z M4.9840118,6.7789917L25.021011,6.7789917C26.01802,6.7789917,26.815995,7.5759888,26.815995,8.572998L26.815995,10.567001C26.815995,11.563995,26.01802,12.360992,25.021011,12.360992L4.9840118,12.360992C3.9870018,12.360992,3.1900043,11.563995,3.1900043,10.567001L3.1900043,8.572998C3.1900043,7.5759888,3.9870018,6.7789917,4.9840118,6.7789917z M4.9840118,0L25.021011,0C26.01802,0,26.815995,0.79699707,26.815995,1.7939911L26.815995,3.7879944C26.815995,4.7850037,26.01802,5.5829926,25.021011,5.5829926L4.9840118,5.5829926C3.9870018,5.5829926,3.1900043,4.7850037,3.1900043,3.7879944L3.1900043,1.7939911C3.1900043,0.79699707,3.9870018,0,4.9840118,0z" />
  </g>
</svg>

