<?xml version="1.0" encoding="utf-8"?>
<svg xmlns="http://www.w3.org/2000/svg" height="256" width="256" viewBox="0 0 256 256">
  <g>
    <path id="path1" transform="rotate(0,128,128) translate(0,11.6000144243249) scale(8.00000047683719,8.00000047683719)  " fill="#FCBB49" d="M7.6999989,22.999995C6.7999992,22.999995 5.999999,23.699995 5.999999,24.699995 5.999999,25.599995 6.6999989,26.399995 7.6999989,26.399995 8.5999994,26.399995 9.3999996,25.699995 9.3999996,24.699995 9.3999996,23.699995 8.5999994,22.999995 7.6999989,22.999995z M7.6999989,20.299996C10.099999,20.299996 12.099999,22.299995 12.099999,24.699995 12.099999,27.099995 10.099999,29.099994 7.6999989,29.099994 5.2999992,29.099994 3.2999992,27.099995 3.2999992,24.699995 3.2999992,22.199996 5.2999992,20.299996 7.6999989,20.299996z M29.199999,9.9999981L31.999999,20.099996 17.099999,24.099995 14.299999,14.399997z M22.999999,2.0999994L25.599999,9.1999979 13.699999,12.799997 11.599999,5.499999z M1.1999989,0L5.8999996,0C6.2999992,0,6.6999989,0.30000019,6.8999996,0.59999943L6.8999996,0.69999981 8.999999,0.69999981 15.599999,26.599995 25.299999,23.699995 25.699999,25.099995 14.599999,28.399994 7.999999,2.0999994 6.5999994,2.0999994C6.3999996,2.2999992,6.1999989,2.3999996,5.8999996,2.3999996L1.1999989,2.3999996C0.5,2.3999996 0,1.7999992 0,1.1999998 0,0.5 0.5,0 1.1999989,0z" />
  </g>
</svg>

